<svg xmlns="http://www.w3.org/2000/svg" width="560" height="210" viewBox="0 0 560 210" role="img" aria-label="DermaVision: clasificación de lesiones de piel"><title>DermaVision: clasificación de lesiones de piel</title><defs><radialGradient id="udg" cx="0.95" cy="0.0" r="0.85"><stop offset="0" stop-color="#b8790c" stop-opacity="0.2"/><stop offset="1" stop-color="#b8790c" stop-opacity="0"/></radialGradient><clipPath id="udclip"><rect width="560" height="210" rx="18"/></clipPath></defs><style>
.pulse{transform-box:fill-box;transform-origin:center;animation:pulse 2.2s ease-out infinite}
@keyframes pulse{0%{transform:scale(1);opacity:.7}100%{transform:scale(3.4);opacity:0}}
.spin{transform-box:fill-box;transform-origin:center;animation:spin 1s linear infinite}
.spin-slow{transform-box:fill-box;transform-origin:center;animation:spin 5s linear infinite}
@keyframes spin{to{transform:rotate(360deg)}}
.blink{animation:blink 1.1s steps(1) infinite}
@keyframes blink{50%{opacity:0}}
.led{animation:led 1.6s ease-in-out infinite}
@keyframes led{50%{opacity:.2}}
.ping{opacity:0;animation:ping 3s linear infinite}
@keyframes ping{0%{opacity:1}35%{opacity:0}100%{opacity:0}}
.scan{animation:scan 3s linear infinite}
@keyframes scan{from{transform:translateX(0)}to{transform:translateX(150px)}}
.bob{animation:bob 1.2s ease-in-out infinite}
@keyframes bob{0%,60%,100%{transform:translateY(0)}30%{transform:translateY(-5px)}}
.flow{animation:flow 3s linear infinite}
@keyframes flow{from{transform:translateX(0)}to{transform:translateX(-60px)}}
@media (prefers-reduced-motion:reduce){*{animation:none!important}}
</style><rect x="0.75" y="0.75" width="558.5" height="208.5" rx="18" fill="#ffffff" stroke="#d3e1f1" stroke-width="1.5"/><g clip-path="url(#udclip)"><rect width="560" height="210" fill="url(#udg)"/></g><path d="M35.7 50C41 50 44.1 46.7 44.1 41.2C44.1 35.8 41 32.5 35.8 32.5H29.8V50ZM32.9 47.3V35.2H35.6C39.2 35.2 41 37.2 41 41.2C41 45.3 39.2 47.3 35.5 47.3ZM52.7 50.3C55.7 50.3 57.7 48.9 58.3 46.8L55.5 46.2C55.1 47.3 54.1 47.9 52.8 47.9C50.8 47.9 49.5 46.6 49.4 44.3H58.5V43.3C58.5 38.8 55.7 36.7 52.5 36.7C48.8 36.7 46.4 39.5 46.4 43.5C46.4 47.6 48.8 50.3 52.7 50.3ZM49.4 42.2C49.6 40.5 50.7 39.1 52.6 39.1C54.4 39.1 55.4 40.4 55.6 42.2ZM61.1 50H64.2V42.3C64.2 40.6 65.4 39.5 67.1 39.5C67.7 39.5 68.3 39.5 68.6 39.6V36.8C68.3 36.8 67.8 36.7 67.5 36.7C66 36.7 64.7 37.6 64.2 39.1H64.1V36.9H61.1ZM70.9 50H73.9V42C73.9 40.2 75.1 39.3 76.4 39.3C77.7 39.3 78.6 40.2 78.6 41.5V50H81.6V41.8C81.6 40.3 82.5 39.3 84 39.3C85.2 39.3 86.2 40 86.2 41.6V50H89.3V41.2C89.3 38.3 87.5 36.7 85.1 36.7C83.3 36.7 81.6 37.6 80.9 39.5C80.4 37.7 79.3 36.7 77.6 36.7C76 36.7 74.5 37.5 73.9 39.4L73.8 36.9H70.9ZM96.2 50.3C98.2 50.3 99.4 49.3 100 48.2H100.1V50H103.1V41.2C103.1 37.8 100.2 36.7 97.7 36.7C95.1 36.7 92.9 37.8 92.2 40.2L95 40.7C95.3 39.9 96.2 39.1 97.7 39.1C99.2 39.1 100 39.8 100 41.1V41.2C100 42.1 99.1 42.1 96.8 42.3C94.2 42.6 91.8 43.4 91.8 46.3C91.8 48.9 93.7 50.3 96.2 50.3ZM97 48C95.7 48 94.7 47.4 94.7 46.3C94.7 45.1 95.8 44.6 97.1 44.4C97.9 44.3 99.6 44.1 100 43.8V45.3C100 46.8 98.8 48 97 48ZM110.3 50H114.2L120.3 32.5H116.9L113.9 41.6C113.4 43.2 112.9 45.1 112.3 47.5C111.6 45.1 111.1 43.2 110.6 41.6L107.5 32.5H104ZM122.5 50H125.6V36.9H122.5ZM124.1 35C125 35 125.8 34.3 125.8 33.4C125.8 32.4 125 31.7 124.1 31.7C123.1 31.7 122.3 32.4 122.3 33.4C122.3 34.3 123.1 35 124.1 35ZM133.8 50.3C137.1 50.3 139.4 48.6 139.4 46.1C139.4 44.2 138.2 43.1 135.7 42.5L133.5 42.1C132.2 41.8 131.6 41.3 131.6 40.5C131.6 39.6 132.6 39 133.9 39C135.3 39 136.1 39.7 136.4 40.6L139.1 40.1C138.6 38.1 136.8 36.7 133.9 36.7C130.7 36.7 128.6 38.3 128.6 40.7C128.6 42.6 129.8 43.8 132.3 44.4L134.5 44.9C135.7 45.1 136.3 45.6 136.3 46.4C136.3 47.3 135.3 47.9 133.8 47.9C132.3 47.9 131.4 47.3 131.1 46L128.2 46.6C128.7 48.9 130.8 50.3 133.8 50.3ZM142 50H145V36.9H142ZM143.5 35C144.5 35 145.3 34.3 145.3 33.4C145.3 32.4 144.5 31.7 143.5 31.7C142.6 31.7 141.8 32.4 141.8 33.4C141.8 34.3 142.6 35 143.5 35ZM154 50.3C157.8 50.3 160.2 47.6 160.2 43.5C160.2 39.4 157.8 36.7 154 36.7C150.1 36.7 147.7 39.4 147.7 43.5C147.7 47.6 150.1 50.3 154 50.3ZM154 47.8C151.8 47.8 150.8 45.9 150.8 43.5C150.8 41.1 151.8 39.2 154 39.2C156.1 39.2 157.1 41.1 157.1 43.5C157.1 45.9 156.1 47.8 154 47.8ZM165.9 42.3C165.9 40.4 167.1 39.3 168.7 39.3C170.3 39.3 171.3 40.4 171.3 42.1V50H174.3V41.7C174.3 38.5 172.6 36.7 169.9 36.7C167.9 36.7 166.6 37.7 165.8 39.5L165.8 36.9H162.9V50H165.9Z" fill="#0d1a2c"/><rect x="308.4" y="30" width="223.6" height="26" rx="13.0" fill="#edf4fc" stroke="#d0dff1"/><path d="M322.7 48 320.1 37.8H321.4L323.1 44.8Q323.3 45.5 323.4 46.1Q323.6 46.7 323.6 47.1Q323.7 46.7 323.8 46.1Q323.9 45.5 324.1 44.8L325.8 37.8H327.1L324.5 48ZM329 48V46.9H331.7V41.5H329.3V40.3H333V46.9H335.6V48ZM332.2 39Q331.7 39 331.5 38.7Q331.2 38.5 331.2 38.1Q331.2 37.7 331.5 37.4Q331.7 37.2 332.2 37.2Q332.7 37.2 332.9 37.4Q333.2 37.7 333.2 38.1Q333.2 38.5 332.9 38.7Q332.7 39 332.2 39ZM340.2 48.2Q339.4 48.2 338.8 47.9Q338.2 47.7 337.9 47.2Q337.5 46.8 337.5 46.1H338.7Q338.8 46.6 339.2 46.8Q339.5 47 340.2 47H340.7Q341.5 47 341.9 46.7Q342.2 46.4 342.2 45.9Q342.2 45.4 341.9 45.1Q341.6 44.9 340.9 44.8L339.9 44.6Q338.7 44.4 338.2 43.9Q337.6 43.4 337.6 42.4Q337.6 41.4 338.3 40.8Q339 40.2 340.3 40.2H340.8Q341.9 40.2 342.6 40.7Q343.3 41.3 343.4 42.1H342.1Q342.1 41.8 341.7 41.6Q341.4 41.3 340.8 41.3H340.3Q339.6 41.3 339.2 41.6Q338.9 41.9 338.9 42.4Q338.9 42.9 339.2 43.1Q339.5 43.3 340.1 43.4L341.1 43.6Q342.3 43.8 342.9 44.3Q343.5 44.9 343.5 45.9Q343.5 46.9 342.8 47.5Q342.1 48.2 340.7 48.2ZM345.8 48V46.9H348.5V41.5H346.1V40.3H349.8V46.9H352.4V48ZM349 39Q348.5 39 348.3 38.7Q348 38.5 348 38.1Q348 37.7 348.3 37.4Q348.5 37.2 349 37.2Q349.5 37.2 349.7 37.4Q350 37.7 350 38.1Q350 38.5 349.7 38.7Q349.5 39 349 39ZM357.2 48.2Q356.3 48.2 355.6 47.8Q354.9 47.5 354.6 46.8Q354.2 46.1 354.2 45.2V43.2Q354.2 42.2 354.6 41.6Q354.9 40.9 355.6 40.6Q356.3 40.2 357.2 40.2Q358.1 40.2 358.8 40.6Q359.5 40.9 359.8 41.6Q360.2 42.2 360.2 43.2V45.2Q360.2 46.1 359.8 46.8Q359.5 47.5 358.8 47.8Q358.1 48.2 357.2 48.2ZM357.2 47Q358 47 358.5 46.6Q358.9 46.1 358.9 45.2V43.2Q358.9 42.3 358.5 41.8Q358 41.3 357.2 41.3Q356.4 41.3 355.9 41.8Q355.4 42.3 355.4 43.2V45.2Q355.4 46.1 355.9 46.6Q356.4 47 357.2 47ZM356.4 39 357.9 37H359.2L357.7 39ZM362.7 48V40.3H363.9V41.8H364.2L363.9 42.1Q363.9 41.2 364.5 40.7Q365 40.2 366 40.2Q367.2 40.2 367.9 40.9Q368.5 41.6 368.5 42.9V48H367.3V43Q367.3 42.2 366.8 41.7Q366.4 41.3 365.6 41.3Q364.9 41.3 364.4 41.8Q363.9 42.2 363.9 43.1V48ZM381.7 48.2Q380.5 48.2 379.8 47.6Q379.1 46.9 379.1 45.9Q379.1 44.8 379.8 44.2Q380.5 43.6 381.7 43.6H384.1V42.8Q384.1 42.1 383.7 41.7Q383.2 41.3 382.4 41.3Q381.8 41.3 381.3 41.6Q380.8 41.9 380.8 42.4H379.5Q379.6 41.4 380.4 40.8Q381.3 40.2 382.5 40.2Q383.8 40.2 384.6 40.9Q385.3 41.6 385.3 42.7V48H384.1V46.6H383.9L384.1 46.4Q384.1 47.2 383.5 47.7Q382.8 48.2 381.7 48.2ZM382 47.2Q382.9 47.2 383.5 46.7Q384.1 46.3 384.1 45.6V44.5H381.7Q381.1 44.5 380.7 44.8Q380.4 45.2 380.4 45.8Q380.4 46.4 380.8 46.8Q381.3 47.2 382 47.2ZM388.2 48V40.3H389.4V41.8H389.7L389.3 42.7Q389.3 41.5 389.8 40.8Q390.4 40.2 391.4 40.2Q392.6 40.2 393.4 41Q394.1 41.7 394.1 43V43.5H392.8V43.1Q392.8 42.2 392.4 41.7Q391.9 41.3 391.1 41.3Q390.3 41.3 389.9 41.8Q389.4 42.2 389.4 43.1V48ZM400 48Q399 48 398.5 47.5Q397.9 47 397.9 46V41.5H395.8V40.3H397.9V38.2H399.2V40.3H402.3V41.5H399.2V46Q399.2 46.9 400 46.9H402.1V48ZM404.6 48V46.9H407.3V41.5H404.9V40.3H408.6V46.9H411.2V48ZM407.8 39Q407.3 39 407.1 38.7Q406.8 38.5 406.8 38.1Q406.8 37.7 407.1 37.4Q407.3 37.2 407.8 37.2Q408.3 37.2 408.5 37.4Q408.8 37.7 408.8 38.1Q408.8 38.5 408.5 38.7Q408.3 39 407.8 39ZM414.9 48V42.3H412.6V41.1H414.9V39.8Q414.9 38.9 415.5 38.3Q416 37.8 417 37.8H419.3V39H417Q416.6 39 416.4 39.2Q416.1 39.4 416.1 39.8V41.1H419.3V42.3H416.1V48ZM421.4 48V46.9H424.1V41.5H421.7V40.3H425.4V46.9H428V48ZM424.6 39Q424.1 39 423.9 38.7Q423.6 38.5 423.6 38.1Q423.6 37.7 423.9 37.4Q424.1 37.2 424.6 37.2Q425.1 37.2 425.3 37.4Q425.6 37.7 425.6 38.1Q425.6 38.5 425.3 38.7Q425.1 39 424.6 39ZM432.9 48.2Q431.9 48.2 431.2 47.8Q430.5 47.5 430.2 46.8Q429.8 46.1 429.8 45.2V43.1Q429.8 42.2 430.2 41.6Q430.5 40.9 431.2 40.5Q431.9 40.2 432.9 40.2Q434.2 40.2 435 40.9Q435.8 41.6 435.9 42.9H434.6Q434.5 42.1 434.1 41.7Q433.6 41.3 432.9 41.3Q432 41.3 431.5 41.8Q431 42.3 431 43.1V45.2Q431 46.1 431.5 46.6Q432 47.1 432.9 47.1Q433.6 47.1 434.1 46.7Q434.5 46.2 434.6 45.5H435.9Q435.8 46.8 435 47.5Q434.2 48.2 432.9 48.2ZM438.2 48V46.9H440.9V41.5H438.5V40.3H442.2V46.9H444.8V48ZM441.4 39Q440.9 39 440.7 38.7Q440.4 38.5 440.4 38.1Q440.4 37.7 440.7 37.4Q440.9 37.2 441.4 37.2Q441.9 37.2 442.1 37.4Q442.4 37.7 442.4 38.1Q442.4 38.5 442.1 38.7Q441.9 39 441.4 39ZM448.9 48.2Q447.7 48.2 447 47.6Q446.3 46.9 446.3 45.9Q446.3 44.8 447 44.2Q447.7 43.6 448.9 43.6H451.3V42.8Q451.3 42.1 450.9 41.7Q450.4 41.3 449.6 41.3Q449 41.3 448.5 41.6Q448 41.9 448 42.4H446.7Q446.8 41.4 447.6 40.8Q448.5 40.2 449.7 40.2Q451 40.2 451.8 40.9Q452.5 41.6 452.5 42.7V48H451.3V46.6H451.1L451.3 46.4Q451.3 47.2 450.7 47.7Q450 48.2 448.9 48.2ZM449.2 47.2Q450.1 47.2 450.7 46.7Q451.3 46.3 451.3 45.6V44.5H448.9Q448.3 44.5 447.9 44.8Q447.6 45.2 447.6 45.8Q447.6 46.4 448 46.8Q448.5 47.2 449.2 47.2ZM459 48Q458.4 48 457.9 47.8Q457.4 47.5 457.1 47Q456.8 46.5 456.8 45.9V39H454.2V37.8H458.1V45.9Q458.1 46.3 458.3 46.6Q458.6 46.9 459 46.9H461.5V48ZM474.8 44.4Q474.3 44.4 474 44.1Q473.6 43.8 473.6 43.3Q473.6 42.7 474 42.4Q474.3 42.1 474.8 42.1Q475.3 42.1 475.6 42.4Q476 42.7 476 43.3Q476 43.8 475.6 44.1Q475.3 44.4 474.8 44.4ZM488.7 48V46.8L491.8 43.4Q492.6 42.6 493 41.9Q493.3 41.2 493.3 40.6Q493.3 39.8 492.9 39.3Q492.4 38.8 491.6 38.8Q490.7 38.8 490.2 39.3Q489.7 39.8 489.7 40.7H488.4Q488.4 39.8 488.8 39.1Q489.2 38.4 489.9 38Q490.6 37.7 491.6 37.7Q492.5 37.7 493.2 38Q493.9 38.4 494.2 39.1Q494.6 39.7 494.6 40.6Q494.6 41.5 494.1 42.3Q493.7 43.2 492.6 44.3L490.1 46.9H494.8V48ZM500 48.2Q499.1 48.2 498.4 47.8Q497.7 47.4 497.3 46.8Q496.9 46.1 496.9 45.2V40.7Q496.9 39.8 497.3 39.1Q497.7 38.4 498.4 38.1Q499.1 37.7 500 37.7Q501 37.7 501.6 38.1Q502.3 38.4 502.7 39.1Q503.1 39.8 503.1 40.7V45.2Q503.1 46.1 502.7 46.8Q502.3 47.4 501.6 47.8Q500.9 48.2 500 48.2ZM500 47.1Q500.8 47.1 501.4 46.6Q501.9 46 501.9 45.2V40.7Q501.9 39.8 501.4 39.3Q500.8 38.8 500 38.8Q499.2 38.8 498.6 39.3Q498.1 39.8 498.1 40.7V45.2Q498.1 46 498.6 46.6Q499.2 47.1 500 47.1ZM500 43.8Q499.6 43.8 499.4 43.5Q499.2 43.3 499.2 42.9Q499.2 42.5 499.4 42.3Q499.6 42 500 42Q500.4 42 500.6 42.3Q500.8 42.5 500.8 42.9Q500.8 43.3 500.6 43.5Q500.4 43.8 500 43.8ZM505.5 48V46.8L508.6 43.4Q509.4 42.6 509.8 41.9Q510.1 41.2 510.1 40.6Q510.1 39.8 509.7 39.3Q509.2 38.8 508.4 38.8Q507.5 38.8 507 39.3Q506.5 39.8 506.5 40.7H505.2Q505.2 39.8 505.6 39.1Q506 38.4 506.7 38Q507.4 37.7 508.4 37.7Q509.3 37.7 510 38Q510.7 38.4 511 39.1Q511.4 39.7 511.4 40.6Q511.4 41.5 510.9 42.3Q510.5 43.2 509.4 44.3L506.9 46.9H511.6V48ZM516.8 48.2Q515.8 48.2 515.1 47.8Q514.4 47.4 514 46.6Q513.6 45.9 513.6 44.9Q513.6 44.1 513.8 43.4Q514 42.6 514.4 42L517 37.8H518.4L515.5 42.5L515.5 42.5Q515.8 42.1 516.3 41.9Q516.7 41.7 517.3 41.7Q518.1 41.7 518.8 42.1Q519.4 42.5 519.7 43.2Q520 43.9 520 44.9Q520 45.9 519.6 46.6Q519.2 47.4 518.5 47.8Q517.8 48.2 516.8 48.2ZM516.8 47.1Q517.7 47.1 518.2 46.5Q518.8 45.9 518.8 44.9Q518.8 43.9 518.2 43.3Q517.7 42.7 516.8 42.7Q515.9 42.7 515.4 43.3Q514.8 43.9 514.8 44.9Q514.8 45.9 515.4 46.5Q515.9 47.1 516.8 47.1Z" fill="#1b3a5e"/><path d="M34.1 84.2C36.5 84.2 38.4 82.7 38.8 80.3H37.3C37 81.9 35.6 82.8 34.1 82.8C32 82.8 30.4 81.2 30.4 78.2C30.4 75.2 32 73.6 34.1 73.6C35.6 73.6 37 74.4 37.3 76H38.8C38.4 73.6 36.5 72.2 34.1 72.2C31.1 72.2 29 74.5 29 78.2C29 81.9 31.1 84.2 34.1 84.2ZM42.3 72.4H40.9V84H42.3ZM47.2 84.2C48.7 84.2 49.5 83.4 49.8 82.8H49.9V84H51.3V78.2C51.3 75.5 49.2 75.2 48 75.2C46.7 75.2 45.2 75.6 44.5 77.2L45.9 77.7C46.1 77.1 46.8 76.4 48.1 76.4C49.3 76.4 49.9 77 49.9 78.1V78.1C49.9 78.8 49.2 78.8 47.7 78.9C46 79.1 44.3 79.5 44.3 81.5C44.3 83.2 45.6 84.2 47.2 84.2ZM47.5 83C46.4 83 45.7 82.5 45.7 81.6C45.7 80.6 46.6 80.3 47.6 80.1C48.1 80.1 49.7 79.9 49.9 79.6V80.8C49.9 81.9 49 83 47.5 83ZM56.8 84.2C58.8 84.2 60.2 83.1 60.2 81.5C60.2 80.3 59.5 79.6 57.9 79.2L56.5 78.9C55.5 78.6 55.1 78.3 55.1 77.6C55.1 76.9 55.9 76.4 56.9 76.4C58 76.4 58.5 77 58.8 77.6L60 77.3C59.6 76 58.7 75.2 56.9 75.2C55 75.2 53.7 76.2 53.7 77.7C53.7 78.9 54.4 79.7 56 80.1L57.5 80.4C58.3 80.6 58.7 81 58.7 81.6C58.7 82.4 58 83 56.7 83C55.7 83 55 82.5 54.7 81.6L53.4 81.9C53.7 83.4 55 84.2 56.8 84.2ZM62.2 84H63.6V75.3H62.2ZM62.9 73.8C63.5 73.8 63.9 73.4 63.9 72.9C63.9 72.4 63.5 72 62.9 72C62.4 72 62 72.4 62 72.9C62 73.4 62.4 73.8 62.9 73.8ZM70.2 75.3H68.1V74.4C68.1 73.6 68.5 73.1 69.4 73.1C69.8 73.1 70 73.2 70.1 73.2L70.5 72C70.3 72 69.9 71.8 69.2 71.8C68 71.8 66.7 72.6 66.7 74.1V75.3H65V76.5H66.7V84H68.1V76.5H70.2ZM72 84H73.4V75.3H72ZM72.7 73.8C73.3 73.8 73.7 73.4 73.7 72.9C73.7 72.4 73.3 72 72.7 72C72.2 72 71.8 72.4 71.8 72.9C71.8 73.4 72.2 73.8 72.7 73.8ZM79.5 84.2C81.2 84.2 82.6 83.3 83 81.7L81.7 81.3C81.4 82.3 80.6 82.9 79.5 82.9C77.7 82.9 76.9 81.4 76.9 79.7C76.9 77.9 77.7 76.4 79.5 76.4C80.6 76.4 81.4 77.1 81.6 78L83 77.6C82.5 76 81.1 75.2 79.5 75.2C77.1 75.2 75.5 77 75.5 79.7C75.5 82.4 77.1 84.2 79.5 84.2ZM87.6 84.2C89.1 84.2 89.9 83.4 90.2 82.8H90.3V84H91.7V78.2C91.7 75.5 89.6 75.2 88.4 75.2C87.1 75.2 85.6 75.6 84.9 77.2L86.3 77.7C86.5 77.1 87.2 76.4 88.5 76.4C89.7 76.4 90.3 77 90.3 78.1V78.1C90.3 78.8 89.6 78.8 88.1 78.9C86.4 79.1 84.7 79.5 84.7 81.5C84.7 83.2 86 84.2 87.6 84.2ZM87.9 83C86.8 83 86.1 82.5 86.1 81.6C86.1 80.6 87 80.3 88 80.1C88.5 80.1 90.1 79.9 90.3 79.6V80.8C90.3 81.9 89.4 83 87.9 83ZM99 84H100.6L105.7 73.7V72.4H98.2V73.7H104.2V73.8ZM115.7 75.3H113.9V73.2H112.5V75.3H111.2V76.5H112.5V81.8C112.5 83.3 113.4 84.1 114.9 84.1C115.2 84.1 115.6 84.1 115.9 84L115.6 82.8C115.4 82.8 115.1 82.9 114.9 82.9C114.2 82.9 113.9 82.5 113.9 81.7V76.5H115.7ZM117.5 84H118.9V75.3H117.5ZM118.2 73.8C118.7 73.8 119.2 73.4 119.2 72.9C119.2 72.4 118.7 72 118.2 72C117.6 72 117.2 72.4 117.2 72.9C117.2 73.4 117.6 73.8 118.2 73.8ZM121.3 87.3H122.8V82.6H122.9C123.1 83.1 123.7 84.2 125.4 84.2C127.6 84.2 129.1 82.4 129.1 79.7C129.1 76.9 127.6 75.2 125.4 75.2C123.7 75.2 123.1 76.2 122.9 76.7H122.7V75.3H121.3ZM125.2 82.9C123.6 82.9 122.7 81.6 122.7 79.6C122.7 77.7 123.6 76.4 125.2 76.4C126.8 76.4 127.7 77.8 127.7 79.6C127.7 81.5 126.8 82.9 125.2 82.9ZM134.7 84.2C137.1 84.2 138.7 82.4 138.7 79.7C138.7 77 137.1 75.2 134.7 75.2C132.3 75.2 130.7 77 130.7 79.7C130.7 82.4 132.3 84.2 134.7 84.2ZM134.7 82.9C133 82.9 132.1 81.4 132.1 79.7C132.1 77.9 133 76.4 134.7 76.4C136.5 76.4 137.3 78 137.3 79.7C137.3 81.4 136.5 82.9 134.7 82.9ZM143.7 84.2C145.8 84.2 147.1 83.1 147.1 81.5C147.1 80.3 146.4 79.6 144.8 79.2L143.5 78.9C142.5 78.6 142 78.3 142 77.6C142 76.9 142.8 76.4 143.9 76.4C145 76.4 145.5 77 145.7 77.6L147 77.3C146.6 76 145.6 75.2 143.8 75.2C142 75.2 140.6 76.2 140.6 77.7C140.6 78.9 141.4 79.7 143 80.1L144.4 80.4C145.3 80.6 145.7 81 145.7 81.6C145.7 82.4 144.9 83 143.7 83C142.6 83 141.9 82.5 141.7 81.6L140.3 81.9C140.7 83.4 141.9 84.2 143.7 84.2ZM157 84.2C158.6 84.2 159.2 83.1 159.5 82.6H159.6V84H161V72.4H159.6V76.7H159.5C159.2 76.2 158.7 75.2 157 75.2C154.8 75.2 153.3 76.9 153.3 79.7C153.3 82.4 154.8 84.2 157 84.2ZM157.2 82.9C155.5 82.9 154.7 81.5 154.7 79.6C154.7 77.8 155.5 76.4 157.2 76.4C158.8 76.4 159.6 77.7 159.6 79.6C159.6 81.6 158.8 82.9 157.2 82.9ZM167.1 84.2C168.9 84.2 170.2 83.3 170.6 82L169.3 81.6C169 82.5 168.2 82.9 167.2 82.9C165.6 82.9 164.5 81.9 164.5 80.1H170.8V79.5C170.8 76.3 168.8 75.2 167 75.2C164.6 75.2 163.1 77 163.1 79.7C163.1 82.4 164.6 84.2 167.1 84.2ZM164.5 78.9C164.6 77.6 165.5 76.4 167 76.4C168.4 76.4 169.2 77.4 169.4 78.9ZM178.7 72.4H177.3V84H178.7ZM184.9 84.2C186.6 84.2 187.9 83.3 188.4 82L187 81.6C186.7 82.5 185.9 82.9 184.9 82.9C183.3 82.9 182.2 81.9 182.2 80.1H188.5V79.5C188.5 76.3 186.5 75.2 184.7 75.2C182.3 75.2 180.8 77 180.8 79.7C180.8 82.4 182.3 84.2 184.9 84.2ZM182.2 78.9C182.3 77.6 183.2 76.4 184.7 76.4C186.1 76.4 186.9 77.4 187.1 78.9ZM193.5 84.2C195.5 84.2 196.9 83.1 196.9 81.5C196.9 80.3 196.2 79.6 194.6 79.2L193.3 78.9C192.2 78.6 191.8 78.3 191.8 77.6C191.8 76.9 192.6 76.4 193.6 76.4C194.8 76.4 195.2 77 195.5 77.6L196.8 77.3C196.4 76 195.4 75.2 193.6 75.2C191.8 75.2 190.4 76.2 190.4 77.7C190.4 78.9 191.1 79.7 192.7 80.1L194.2 80.4C195 80.6 195.5 81 195.5 81.6C195.5 82.4 194.7 83 193.5 83C192.4 83 191.7 82.5 191.5 81.6L190.1 81.9C190.4 83.4 191.7 84.2 193.5 84.2ZM199 84H200.4V75.3H199ZM199.7 73.8C200.2 73.8 200.6 73.4 200.6 72.9C200.6 72.4 200.2 72 199.7 72C199.1 72 198.7 72.4 198.7 72.9C198.7 73.4 199.1 73.8 199.7 73.8ZM206.4 84.2C208.8 84.2 210.4 82.4 210.4 79.7C210.4 77 208.8 75.2 206.4 75.2C204 75.2 202.4 77 202.4 79.7C202.4 82.4 204 84.2 206.4 84.2ZM206.4 82.9C204.6 82.9 203.8 81.4 203.8 79.7C203.8 77.9 204.6 76.4 206.4 76.4C208.1 76.4 209 78 209 79.7C209 81.4 208.1 82.9 206.4 82.9ZM213.8 78.8C213.8 77.3 214.8 76.4 216 76.4C217.2 76.4 218 77.2 218 78.6V84H219.4V78.5C219.4 76.2 218.2 75.2 216.5 75.2C215.3 75.2 214.3 75.6 213.8 76.9L213.8 75.3H212.4V84H213.8ZM225.5 84.2C227.3 84.2 228.6 83.3 229 82L227.7 81.6C227.4 82.5 226.6 82.9 225.6 82.9C224 82.9 222.9 81.9 222.9 80.1H229.2V79.5C229.2 76.3 227.2 75.2 225.4 75.2C223 75.2 221.5 77 221.5 79.7C221.5 82.4 223 84.2 225.5 84.2ZM222.9 78.9C223 77.6 223.9 76.4 225.4 76.4C226.8 76.4 227.6 77.4 227.8 78.9ZM234.2 84.2C236.2 84.2 237.6 83.1 237.6 81.5C237.6 80.3 236.9 79.6 235.3 79.2L234 78.9C232.9 78.6 232.5 78.3 232.5 77.6C232.5 76.9 233.3 76.4 234.3 76.4C235.4 76.4 235.9 77 236.2 77.6L237.5 77.3C237.1 76 236.1 75.2 234.3 75.2C232.5 75.2 231.1 76.2 231.1 77.7C231.1 78.9 231.8 79.7 233.4 80.1L234.9 80.4C235.7 80.6 236.2 81 236.2 81.6C236.2 82.4 235.4 83 234.2 83C233.1 83 232.4 82.5 232.1 81.6L230.8 81.9C231.1 83.4 232.4 84.2 234.2 84.2ZM247.4 84.2C249.1 84.2 249.7 83.1 250 82.6H250.1V84H251.5V72.4H250.1V76.7H250C249.7 76.2 249.1 75.2 247.4 75.2C245.2 75.2 243.7 76.9 243.7 79.7C243.7 82.4 245.2 84.2 247.4 84.2ZM247.6 82.9C246 82.9 245.2 81.5 245.2 79.6C245.2 77.8 246 76.4 247.6 76.4C249.2 76.4 250.1 77.7 250.1 79.6C250.1 81.6 249.2 82.9 247.6 82.9ZM257.6 84.2C259.4 84.2 260.7 83.3 261.1 82L259.8 81.6C259.4 82.5 258.7 82.9 257.6 82.9C256.1 82.9 255 81.9 254.9 80.1H261.3V79.5C261.3 76.3 259.3 75.2 257.5 75.2C255.1 75.2 253.5 77 253.5 79.7C253.5 82.4 255.1 84.2 257.6 84.2ZM255 78.9C255 77.6 256 76.4 257.5 76.4C258.9 76.4 259.7 77.4 259.8 78.9ZM267.8 87.3H269.2V82.6H269.3C269.6 83.1 270.2 84.2 271.8 84.2C274 84.2 275.5 82.4 275.5 79.7C275.5 76.9 274 75.2 271.8 75.2C270.1 75.2 269.6 76.2 269.3 76.7H269.1V75.3H267.8ZM271.6 82.9C270 82.9 269.2 81.6 269.2 79.6C269.2 77.7 270 76.4 271.6 76.4C273.3 76.4 274.1 77.8 274.1 79.6C274.1 81.5 273.2 82.9 271.6 82.9ZM277.6 84H279V75.3H277.6ZM278.3 73.8C278.8 73.8 279.3 73.4 279.3 72.9C279.3 72.4 278.8 72 278.3 72C277.8 72 277.3 72.4 277.3 72.9C277.3 73.4 277.8 73.8 278.3 73.8ZM285.1 84.2C286.9 84.2 288.2 83.3 288.6 82L287.3 81.6C286.9 82.5 286.2 82.9 285.1 82.9C283.6 82.9 282.5 81.9 282.4 80.1H288.8V79.5C288.8 76.3 286.8 75.2 285 75.2C282.6 75.2 281 77 281 79.7C281 82.4 282.6 84.2 285.1 84.2ZM282.5 78.9C282.5 77.6 283.5 76.4 285 76.4C286.4 76.4 287.2 77.4 287.3 78.9ZM292.2 72.4H290.8V84H292.2Z" fill="#3b4b61"/><path d="M32.2 106.2C34.2 106.2 35.6 105.1 35.6 103.5C35.6 102.3 34.9 101.6 33.3 101.2L32 100.9C31 100.6 30.5 100.3 30.5 99.6C30.5 98.9 31.3 98.4 32.4 98.4C33.5 98.4 34 99 34.2 99.6L35.5 99.3C35.1 98 34.1 97.2 32.3 97.2C30.5 97.2 29.1 98.2 29.1 99.7C29.1 100.9 29.9 101.7 31.5 102.1L32.9 102.4C33.8 102.6 34.2 103 34.2 103.6C34.2 104.4 33.4 105 32.2 105C31.1 105 30.4 104.5 30.2 103.6L28.8 103.9C29.2 105.4 30.4 106.2 32.2 106.2ZM41.2 106.2C43.6 106.2 45.2 104.4 45.2 101.7C45.2 99 43.6 97.2 41.2 97.2C38.9 97.2 37.3 99 37.3 101.7C37.3 104.4 38.9 106.2 41.2 106.2ZM41.2 104.9C39.5 104.9 38.7 103.4 38.7 101.7C38.7 99.9 39.5 98.4 41.2 98.4C43 98.4 43.8 100 43.8 101.7C43.8 103.4 43 104.9 41.2 104.9ZM51.3 106.2C53.5 106.2 55 104.4 55 101.7C55 98.9 53.5 97.2 51.3 97.2C49.6 97.2 49.1 98.2 48.8 98.7H48.7V94.4H47.3V106H48.6V104.6H48.8C49.1 105.1 49.7 106.2 51.3 106.2ZM51.1 104.9C49.5 104.9 48.7 103.6 48.7 101.6C48.7 99.7 49.5 98.4 51.1 98.4C52.8 98.4 53.6 99.8 53.6 101.6C53.6 103.5 52.8 104.9 51.1 104.9ZM57.1 106H58.5V100.5C58.5 99.4 59.4 98.5 60.7 98.5C61 98.5 61.4 98.6 61.5 98.6V97.2C61.3 97.2 61 97.1 60.8 97.1C59.8 97.1 58.8 97.7 58.5 98.6H58.4V97.3H57.1ZM66.5 106.2C68.3 106.2 69.6 105.3 70 104L68.6 103.6C68.3 104.5 67.5 104.9 66.5 104.9C65 104.9 63.9 103.9 63.8 102.1H70.1V101.5C70.1 98.3 68.2 97.2 66.3 97.2C64 97.2 62.4 99 62.4 101.7C62.4 104.4 64 106.2 66.5 106.2ZM63.8 100.9C63.9 99.6 64.8 98.4 66.3 98.4C67.8 98.4 68.6 99.4 68.7 100.9ZM80.5 94.4H78.7L76.2 96.2V97.8L79 95.7H79.1V106H80.5ZM87 106.2C89.6 106.2 91.1 104 91.1 100.2C91.1 96.4 89.6 94.2 87 94.2C84.4 94.2 82.9 96.4 82.9 100.2C82.9 104 84.4 106.2 87 106.2ZM87 104.9C85.3 104.9 84.3 103.1 84.3 100.2C84.3 97.2 85.3 95.5 87 95.5C88.7 95.5 89.6 97.2 89.6 100.2C89.6 103.1 88.7 104.9 87 104.9ZM93.9 106.1C94.5 106.1 95 105.6 95 105C95 104.5 94.5 104 93.9 104C93.3 104 92.9 104.5 92.9 105C92.9 105.6 93.3 106.1 93.9 106.1ZM100.9 106.2C103.5 106.2 105 104 105 100.2C105 96.4 103.4 94.2 100.9 94.2C98.3 94.2 96.8 96.4 96.8 100.2C96.8 104 98.3 106.2 100.9 106.2ZM100.9 104.9C99.2 104.9 98.2 103.1 98.2 100.2C98.2 97.2 99.2 95.5 100.9 95.5C102.6 95.5 103.5 97.2 103.5 100.2C103.5 103.1 102.6 104.9 100.9 104.9ZM111 94.4H109.2L106.7 96.2V97.8L109.5 95.7H109.6V106H111ZM117.3 106.2C119.6 106.2 121.2 104.5 121.2 102.3C121.2 100 119.6 98.4 117.5 98.4C116.7 98.4 115.9 98.7 115.4 99.1H115.4L115.8 95.7H120.6V94.4H114.5L113.8 100.1L115.2 100.3C115.7 99.9 116.5 99.7 117.2 99.7C118.7 99.7 119.7 100.8 119.7 102.3C119.7 103.8 118.7 104.9 117.3 104.9C116.1 104.9 115.2 104.1 115.1 103.1H113.7C113.7 104.8 115.3 106.2 117.3 106.2ZM127.9 106H129.3V97.3H127.9ZM128.6 95.8C129.1 95.8 129.6 95.4 129.6 94.9C129.6 94.4 129.1 94 128.6 94C128.1 94 127.6 94.4 127.6 94.9C127.6 95.4 128.1 95.8 128.6 95.8ZM131.8 106H133.2V100.5C133.2 99.1 134.1 98.4 135.1 98.4C136.1 98.4 136.8 99 136.8 100V106H138.2V100.3C138.2 99.2 139 98.4 140.1 98.4C141.1 98.4 141.9 98.9 141.9 100.1V106H143.3V100.1C143.3 98.1 142.1 97.1 140.6 97.1C139.3 97.1 138.2 97.8 137.8 98.9C137.5 97.8 136.7 97.1 135.6 97.1C134.5 97.1 133.6 97.7 133.1 98.9L133.1 97.3H131.8ZM148.2 106.2C149.7 106.2 150.5 105.4 150.8 104.8H150.9V106H152.3V100.2C152.3 97.5 150.2 97.2 149 97.2C147.7 97.2 146.2 97.6 145.5 99.2L146.8 99.7C147.1 99.1 147.8 98.4 149.1 98.4C150.3 98.4 150.9 99 150.9 100.1V100.1C150.9 100.8 150.2 100.8 148.6 100.9C147 101.1 145.2 101.5 145.2 103.5C145.2 105.2 146.6 106.2 148.2 106.2ZM148.5 105C147.4 105 146.7 104.5 146.7 103.6C146.7 102.6 147.6 102.3 148.6 102.1C149.1 102.1 150.6 101.9 150.9 101.6V102.8C150.9 103.9 150 105 148.5 105ZM148.3 96.1H149.4L150.9 93.8H149.4ZM158.3 109.5C160.4 109.5 162.1 108.5 162.1 106.2V97.3H160.7V98.7H160.6C160.3 98.2 159.7 97.2 158.1 97.2C155.9 97.2 154.3 98.9 154.3 101.6C154.3 104.3 155.9 105.9 158 105.9C159.7 105.9 160.3 104.9 160.6 104.4H160.7V106.1C160.7 107.6 159.7 108.2 158.3 108.2C156.8 108.2 156.2 107.4 155.8 106.9L154.7 107.7C155.2 108.6 156.4 109.5 158.3 109.5ZM158.3 104.6C156.6 104.6 155.8 103.4 155.8 101.6C155.8 99.8 156.6 98.4 158.3 98.4C159.9 98.4 160.7 99.7 160.7 101.6C160.7 103.5 159.8 104.6 158.3 104.6ZM168.2 106.2C170 106.2 171.3 105.3 171.7 104L170.4 103.6C170.1 104.5 169.3 104.9 168.2 104.9C166.7 104.9 165.6 103.9 165.6 102.1H171.9V101.5C171.9 98.3 169.9 97.2 168.1 97.2C165.7 97.2 164.1 99 164.1 101.7C164.1 104.4 165.7 106.2 168.2 106.2ZM165.6 100.9C165.7 99.6 166.6 98.4 168.1 98.4C169.5 98.4 170.3 99.4 170.5 100.9ZM175.3 100.8C175.3 99.3 176.2 98.4 177.5 98.4C178.7 98.4 179.5 99.2 179.5 100.6V106H180.9V100.5C180.9 98.2 179.7 97.2 177.9 97.2C176.8 97.2 175.8 97.6 175.3 98.9L175.2 97.3H173.9V106H175.3ZM187 106.2C188.8 106.2 190.1 105.3 190.5 104L189.2 103.6C188.8 104.5 188.1 104.9 187 104.9C185.5 104.9 184.4 103.9 184.4 102.1H190.7V101.5C190.7 98.3 188.7 97.2 186.9 97.2C184.5 97.2 182.9 99 182.9 101.7C182.9 104.4 184.5 106.2 187 106.2ZM184.4 100.9C184.4 99.6 185.4 98.4 186.9 98.4C188.3 98.4 189.1 99.4 189.2 100.9ZM195.6 106.2C197.7 106.2 199.1 105.1 199.1 103.5C199.1 102.3 198.4 101.6 196.8 101.2L195.4 100.9C194.4 100.6 194 100.3 194 99.6C194 98.9 194.8 98.4 195.8 98.4C196.9 98.4 197.4 99 197.7 99.6L198.9 99.3C198.5 98 197.6 97.2 195.8 97.2C193.9 97.2 192.6 98.2 192.6 99.7C192.6 100.9 193.3 101.7 194.9 102.1L196.4 102.4C197.2 102.6 197.6 103 197.6 103.6C197.6 104.4 196.9 105 195.6 105C194.6 105 193.9 104.5 193.6 103.6L192.3 103.9C192.6 105.4 193.9 106.2 195.6 106.2Z" fill="#3b4b61"/><path d="M32.5 128.2C34.2 128.2 34.8 127.1 35 126.6H35.2V128H36.6V116.4H35.2V120.7H35C34.8 120.2 34.2 119.2 32.5 119.2C30.3 119.2 28.8 120.9 28.8 123.7C28.8 126.4 30.3 128.2 32.5 128.2ZM32.7 126.9C31.1 126.9 30.2 125.5 30.2 123.6C30.2 121.8 31.1 120.4 32.7 120.4C34.3 120.4 35.2 121.7 35.2 123.6C35.2 125.6 34.3 126.9 32.7 126.9ZM42.7 128.2C44.5 128.2 45.8 127.3 46.2 126L44.8 125.6C44.5 126.5 43.7 126.9 42.7 126.9C41.2 126.9 40.1 125.9 40 124.1H46.3V123.5C46.3 120.3 44.4 119.2 42.5 119.2C40.2 119.2 38.6 121 38.6 123.7C38.6 126.4 40.2 128.2 42.7 128.2ZM40 122.9C40.1 121.6 41 120.4 42.5 120.4C44 120.4 44.8 121.4 44.9 122.9ZM48.4 128H49.8V122.5C49.8 121.4 50.7 120.5 51.9 120.5C52.3 120.5 52.7 120.6 52.8 120.6V119.2C52.6 119.2 52.3 119.1 52.1 119.1C51 119.1 50.1 119.7 49.8 120.6H49.7V119.3H48.4ZM54.6 128H56V122.5C56 121.1 57 120.4 58 120.4C59 120.4 59.7 121 59.7 122V128H61.1V122.3C61.1 121.2 61.8 120.4 63 120.4C63.9 120.4 64.8 120.9 64.8 122.1V128H66.2V122.1C66.2 120.1 64.9 119.1 63.4 119.1C62.2 119.1 61.1 119.8 60.7 120.9C60.4 119.8 59.6 119.1 58.5 119.1C57.4 119.1 56.4 119.7 56 120.9L56 119.3H54.6ZM71.1 128.2C72.6 128.2 73.4 127.4 73.7 126.8H73.8V128H75.2V122.2C75.2 119.5 73.1 119.2 71.9 119.2C70.5 119.2 69 119.6 68.4 121.2L69.7 121.7C70 121.1 70.7 120.4 71.9 120.4C73.1 120.4 73.8 121 73.8 122.1V122.1C73.8 122.8 73.1 122.8 71.5 122.9C69.9 123.1 68.1 123.5 68.1 125.5C68.1 127.2 69.4 128.2 71.1 128.2ZM71.3 127C70.3 127 69.5 126.5 69.5 125.6C69.5 124.6 70.4 124.3 71.5 124.1C72 124.1 73.5 123.9 73.8 123.6V124.8C73.8 125.9 72.9 127 71.3 127ZM81.1 119.3H79.3V117.2H77.9V119.3H76.6V120.5H77.9V125.8C77.9 127.3 78.8 128.1 80.3 128.1C80.6 128.1 81 128.1 81.3 128L81 126.8C80.8 126.8 80.5 126.9 80.3 126.9C79.6 126.9 79.3 126.5 79.3 125.7V120.5H81.1ZM86.3 128.2C88.6 128.2 90.3 126.4 90.3 123.7C90.3 121 88.6 119.2 86.3 119.2C83.9 119.2 82.3 121 82.3 123.7C82.3 126.4 83.9 128.2 86.3 128.2ZM86.3 126.9C84.5 126.9 83.7 125.4 83.7 123.7C83.7 121.9 84.5 120.4 86.3 120.4C88 120.4 88.8 122 88.8 123.7C88.8 125.4 88 126.9 86.3 126.9ZM95.3 128.2C97.3 128.2 98.7 127.1 98.7 125.5C98.7 124.3 98 123.6 96.4 123.2L95.1 122.9C94 122.6 93.6 122.3 93.6 121.6C93.6 120.9 94.4 120.4 95.4 120.4C96.5 120.4 97 121 97.3 121.6L98.6 121.3C98.2 120 97.2 119.2 95.4 119.2C93.6 119.2 92.2 120.2 92.2 121.7C92.2 122.9 92.9 123.7 94.5 124.1L96 124.4C96.8 124.6 97.3 125 97.3 125.6C97.3 126.4 96.5 127 95.3 127C94.2 127 93.5 126.5 93.2 125.6L91.9 125.9C92.2 127.4 93.5 128.2 95.3 128.2ZM104.3 128.2C106 128.2 107.4 127.3 107.9 125.7L106.5 125.3C106.3 126.3 105.5 126.9 104.3 126.9C102.6 126.9 101.8 125.4 101.8 123.7C101.8 121.9 102.6 120.4 104.3 120.4C105.5 120.4 106.2 121.1 106.5 122L107.8 121.6C107.4 120 106 119.2 104.3 119.2C101.9 119.2 100.3 121 100.3 123.7C100.3 126.4 101.9 128.2 104.3 128.2ZM113.4 128.2C115.8 128.2 117.4 126.4 117.4 123.7C117.4 121 115.8 119.2 113.4 119.2C111.1 119.2 109.5 121 109.5 123.7C109.5 126.4 111.1 128.2 113.4 128.2ZM113.4 126.9C111.7 126.9 110.9 125.4 110.9 123.7C110.9 121.9 111.7 120.4 113.4 120.4C115.2 120.4 116 122 116 123.7C116 125.4 115.2 126.9 113.4 126.9ZM112.8 118.1H114L115.5 115.8H113.9ZM119.5 131.3H120.9V126.6H121C121.3 127.1 121.9 128.2 123.5 128.2C125.7 128.2 127.2 126.4 127.2 123.7C127.2 120.9 125.7 119.2 123.5 119.2C121.8 119.2 121.3 120.2 121 120.7H120.8V119.3H119.5ZM123.3 126.9C121.7 126.9 120.9 125.6 120.9 123.6C120.9 121.7 121.7 120.4 123.3 120.4C125 120.4 125.8 121.8 125.8 123.6C125.8 125.5 125 126.9 123.3 126.9ZM129.3 128H130.7V119.3H129.3ZM130 117.8C130.5 117.8 131 117.4 131 116.9C131 116.4 130.5 116 130 116C129.5 116 129 116.4 129 116.9C129 117.4 129.5 117.8 130 117.8ZM136.7 128.2C138.4 128.2 139.8 127.3 140.3 125.7L138.9 125.3C138.7 126.3 137.9 126.9 136.7 126.9C135 126.9 134.2 125.4 134.2 123.7C134.2 121.9 135 120.4 136.7 120.4C137.9 120.4 138.6 121.1 138.9 122L140.2 121.6C139.8 120 138.4 119.2 136.7 119.2C134.3 119.2 132.7 121 132.7 123.7C132.7 126.4 134.3 128.2 136.7 128.2ZM144.9 128.2C146.4 128.2 147.2 127.4 147.5 126.8H147.6V128H149V122.2C149 119.5 146.9 119.2 145.7 119.2C144.3 119.2 142.8 119.6 142.2 121.2L143.5 121.7C143.8 121.1 144.5 120.4 145.7 120.4C146.9 120.4 147.6 121 147.6 122.1V122.1C147.6 122.8 146.9 122.8 145.3 122.9C143.7 123.1 141.9 123.5 141.9 125.5C141.9 127.2 143.2 128.2 144.9 128.2ZM145.1 127C144.1 127 143.3 126.5 143.3 125.6C143.3 124.6 144.2 124.3 145.3 124.1C145.8 124.1 147.3 123.9 147.6 123.6V124.8C147.6 125.9 146.7 127 145.1 127ZM154.4 128.2C156.5 128.2 157.9 127.1 157.9 125.5C157.9 124.3 157.1 123.6 155.5 123.2L154.2 122.9C153.2 122.6 152.7 122.3 152.7 121.6C152.7 120.9 153.5 120.4 154.6 120.4C155.7 120.4 156.2 121 156.4 121.6L157.7 121.3C157.3 120 156.3 119.2 154.5 119.2C152.7 119.2 151.3 120.2 151.3 121.7C151.3 122.9 152.1 123.7 153.7 124.1L155.1 124.4C156 124.6 156.4 125 156.4 125.6C156.4 126.4 155.6 127 154.4 127C153.3 127 152.6 126.5 152.4 125.6L151 125.9C151.4 127.4 152.6 128.2 154.4 128.2ZM161 128.1C161.5 128.1 162 127.6 162 127C162 126.5 161.5 126 161 126C160.4 126 159.9 126.5 159.9 127C159.9 127.6 160.4 128.1 161 128.1Z" fill="#3b4b61"/><path d="M40.4 176.4C47.3 176.4 51.5 171 51.5 162.2C51.5 153.4 47.3 147.9 40.4 147.9C33.4 147.9 29.2 153.4 29.2 162.2C29.2 171 33.4 176.4 40.4 176.4ZM40.4 171.9C36.8 171.9 34.5 168.2 34.5 162.2C34.5 156.2 36.8 152.5 40.4 152.5C44 152.5 46.2 156.2 46.2 162.2C46.2 168.2 44 171.9 40.4 171.9ZM52.5 181.8H56.3L59.1 171.5H53.8ZM62.5 176H68.3L79.8 153V148.4H60.6V153.1H74.1V153.1ZM82.1 176H101.9V171.4H89.8V171.4L95.7 166.3C99.6 163 101.8 160.4 101.8 156.5C101.8 151.3 97.7 147.9 92.1 147.9C85.9 147.9 82 151.8 82 157.9H87.3C87.3 154.5 89.1 152.5 92.1 152.5C94.8 152.5 96.5 154.2 96.5 156.8C96.5 159.4 94.7 161 92.3 163.1L82.1 171.8ZM114.5 176.4C121.8 176.4 125.7 170.6 125.7 161.5C125.7 152.9 121.7 147.9 114.8 147.9C108.8 147.9 104.6 151.7 104.6 157.4C104.6 162.7 108.5 166.6 113.8 166.6C116.7 166.6 119 165.5 120.3 163.4H120.4C120.4 168.6 118.5 172 114.6 172C112.1 172 110.5 170.7 110.1 168.5H104.8C105.3 173 109 176.4 114.5 176.4ZM114.8 162.3C112 162.3 110 160.2 110 157.4C110 154.5 112.1 152.4 114.8 152.4C117.5 152.4 119.6 154.5 119.6 157.4C119.6 160.2 117.5 162.3 114.8 162.3Z" fill="#0d1a2c"/><path d="M141.1 176.2C142.6 176.2 143.2 175.2 143.4 174.7H143.6V176H144.9V165.1H143.5V169.1H143.4C143.2 168.7 142.7 167.7 141.1 167.7C139 167.7 137.6 169.3 137.6 171.9C137.6 174.5 139 176.2 141.1 176.2ZM141.3 175C139.7 175 138.9 173.6 138.9 171.9C138.9 170.2 139.7 168.9 141.3 168.9C142.8 168.9 143.6 170.1 143.6 171.9C143.6 173.7 142.8 175 141.3 175ZM150.6 176.2C152.3 176.2 153.5 175.3 153.9 174.1L152.6 173.7C152.3 174.6 151.6 175 150.6 175C149.2 175 148.2 174.1 148.1 172.4H154V171.8C154 168.8 152.2 167.7 150.5 167.7C148.2 167.7 146.8 169.5 146.8 172C146.8 174.5 148.3 176.2 150.6 176.2ZM148.1 171.2C148.2 170 149.1 168.9 150.5 168.9C151.8 168.9 152.6 169.8 152.7 171.2ZM160.1 176H161.5V170.8C161.5 169.5 162.3 168.9 163.3 168.9C164.2 168.9 164.9 169.5 164.9 170.4V176H166.2V170.7C166.2 169.6 166.9 168.9 168 168.9C168.9 168.9 169.6 169.3 169.6 170.5V176H171V170.5C171 168.6 169.8 167.7 168.4 167.7C167.2 167.7 166.2 168.3 165.8 169.3C165.5 168.3 164.8 167.7 163.7 167.7C162.8 167.7 161.8 168.2 161.4 169.3L161.4 167.8H160.1ZM175.6 176.2C177 176.2 177.7 175.5 178 174.9H178.1V176H179.4V170.6C179.4 168 177.4 167.7 176.3 167.7C175.1 167.7 173.7 168.2 173 169.6L174.3 170.1C174.5 169.5 175.2 168.9 176.4 168.9C177.5 168.9 178.1 169.5 178.1 170.5V170.5C178.1 171.1 177.4 171.1 176 171.3C174.5 171.5 172.8 171.8 172.8 173.7C172.8 175.3 174 176.2 175.6 176.2ZM175.8 175C174.8 175 174.1 174.6 174.1 173.7C174.1 172.8 175 172.5 175.9 172.4C176.4 172.3 177.9 172.2 178.1 171.9V173C178.1 174 177.3 175 175.8 175ZM185 176.2C186.6 176.2 187.9 175.3 188.4 173.8L187.1 173.5C186.9 174.4 186.1 175 185 175C183.4 175 182.7 173.6 182.7 172C182.7 170.3 183.4 168.9 185 168.9C186.1 168.9 186.9 169.5 187.1 170.3L188.4 170C187.9 168.5 186.6 167.7 185 167.7C182.8 167.7 181.3 169.4 181.3 172C181.3 174.5 182.8 176.2 185 176.2ZM190.3 176H191.6V170.9C191.6 169.8 192.5 169 193.6 169C194 169 194.4 169 194.4 169V167.7C194.3 167.7 194 167.7 193.8 167.7C192.8 167.7 191.9 168.2 191.6 169.1H191.6V167.8H190.3ZM199 176.2C201.2 176.2 202.8 174.5 202.8 172C202.8 169.4 201.2 167.7 199 167.7C196.8 167.7 195.3 169.4 195.3 172C195.3 174.5 196.8 176.2 199 176.2ZM199 175C197.4 175 196.6 173.6 196.6 172C196.6 170.3 197.4 168.9 199 168.9C200.7 168.9 201.4 170.3 201.4 172C201.4 173.6 200.7 175 199 175ZM209.4 170.7H204.6V171.9H209.4ZM211.7 176H213.1V171.3H217.8V170.1H213.1V166.3H218.3V165.1H211.7ZM224.1 165.1H222.3L220 166.8V168.3L222.6 166.4H222.7V176H224.1Z" fill="#687a92"/><circle cx="465.4" cy="150.2" r="14.2" fill="#b8790c" fill-opacity="0.18" stroke="#b8790c" stroke-opacity="0.55"/><circle cx="468.3" cy="148.1" r="4.5" fill="#b8790c" fill-opacity="0.55"/><circle cx="513.4" cy="150" r="15.3" fill="#1a72d6" fill-opacity="0.18" stroke="#1a72d6" stroke-opacity="0.55"/><circle cx="516.4" cy="147.7" r="4.9" fill="#1a72d6" fill-opacity="0.55"/><circle cx="376.4" cy="122.6" r="15.5" fill="#687a92" fill-opacity="0.18" stroke="#687a92" stroke-opacity="0.55"/><circle cx="379.4" cy="120.2" r="5" fill="#687a92" fill-opacity="0.55"/><circle cx="442.4" cy="100.7" r="11.9" fill="#b8790c" fill-opacity="0.18" stroke="#b8790c" stroke-opacity="0.55"/><circle cx="444.7" cy="98.9" r="3.8" fill="#b8790c" fill-opacity="0.55"/><circle cx="458.1" cy="77.3" r="9" fill="#1a72d6" fill-opacity="0.18" stroke="#1a72d6" stroke-opacity="0.55"/><circle cx="459.9" cy="76" r="2.9" fill="#1a72d6" fill-opacity="0.55"/><circle cx="413.9" cy="167.6" r="13.9" fill="#687a92" fill-opacity="0.18" stroke="#687a92" stroke-opacity="0.55"/><circle cx="416.7" cy="165.6" r="4.4" fill="#687a92" fill-opacity="0.55"/><circle cx="502.7" cy="96.9" r="8.9" fill="#b8790c" fill-opacity="0.18" stroke="#b8790c" stroke-opacity="0.55"/><circle cx="504.5" cy="95.6" r="2.9" fill="#b8790c" fill-opacity="0.55"/><circle cx="419.4" cy="124.1" r="13.3" fill="#1a72d6" fill-opacity="0.18" stroke="#1a72d6" stroke-opacity="0.55"/><circle cx="422" cy="122.1" r="4.3" fill="#1a72d6" fill-opacity="0.55"/><circle cx="380.6" cy="173.5" r="7.2" fill="#687a92" fill-opacity="0.18" stroke="#687a92" stroke-opacity="0.55"/><circle cx="382" cy="172.4" r="2.3" fill="#687a92" fill-opacity="0.55"/><circle cx="373.4" cy="80.7" r="8.6" fill="#b8790c" fill-opacity="0.18" stroke="#b8790c" stroke-opacity="0.55"/><circle cx="375.1" cy="79.4" r="2.8" fill="#b8790c" fill-opacity="0.55"/><circle cx="398.6" cy="83.8" r="8.3" fill="#1a72d6" fill-opacity="0.18" stroke="#1a72d6" stroke-opacity="0.55"/><circle cx="400.3" cy="82.6" r="2.7" fill="#1a72d6" fill-opacity="0.55"/><circle cx="475.4" cy="175.7" r="8.5" fill="#687a92" fill-opacity="0.18" stroke="#687a92" stroke-opacity="0.55"/><circle cx="477.1" cy="174.4" r="2.7" fill="#687a92" fill-opacity="0.55"/><circle cx="495.9" cy="121.6" r="10.8" fill="#b8790c" fill-opacity="0.18" stroke="#b8790c" stroke-opacity="0.55"/><circle cx="498.1" cy="119.9" r="3.5" fill="#b8790c" fill-opacity="0.55"/><circle cx="480.1" cy="78.8" r="8.4" fill="#1a72d6" fill-opacity="0.18" stroke="#1a72d6" stroke-opacity="0.55"/><circle cx="481.8" cy="77.5" r="2.7" fill="#1a72d6" fill-opacity="0.55"/><circle cx="389.7" cy="152" r="9.7" fill="#687a92" fill-opacity="0.18" stroke="#687a92" stroke-opacity="0.55"/><circle cx="391.7" cy="150.6" r="3.1" fill="#687a92" fill-opacity="0.55"/><circle cx="463.6" cy="117.4" r="8.5" fill="#b8790c" fill-opacity="0.18" stroke="#b8790c" stroke-opacity="0.55"/><circle cx="465.3" cy="116.1" r="2.7" fill="#b8790c" fill-opacity="0.55"/><g transform="translate(420 110)"><circle r="25" fill="#1a72d6" fill-opacity="0.10" stroke="#0d1a2c" stroke-width="3"/><line x1="18" y1="18" x2="34" y2="34" stroke="#0d1a2c" stroke-width="5" stroke-linecap="round"/><animateMotion path="M0 0 C40 -40 100 -20 80 30 C60 70 -20 60 0 0Z" dur="7s" repeatCount="indefinite"/></g></svg>
